<?xml version="1.0" standalone="no"?>
<!DOCTYPE svg PUBLIC "-//W3C//DTD SVG 20010904//EN"
 "http://www.w3.org/TR/2001/REC-SVG-20010904/DTD/svg10.dtd">
<svg version="1.0" xmlns="http://www.w3.org/2000/svg"
 width="2333.000000pt" height="2414.000000pt" viewBox="0 0 2333.000000 2414.000000"
 preserveAspectRatio="xMidYMid meet">

<g transform="translate(0.000000,2414.000000) scale(0.100000,-0.100000)"
fill="#FFD700" stroke="none">
<path d="M9520 22156 c-41 -7 -120 -18 -175 -25 -91 -12 -394 -89 -505 -128
-72 -26 -359 -145 -515 -213 -22 -10 -75 -32 -119 -49 -102 -41 -123 -54 -74
-46 44 7 267 81 348 115 70 29 85 35 140 53 25 8 106 36 180 61 256 86 415
123 701 162 173 23 220 25 400 21 240 -5 523 -36 659 -72 252 -68 357 -103
500 -167 231 -105 280 -128 338 -165 62 -39 75 -42 34 -8 -17 14 -35 25 -41
25 -6 0 -11 3 -11 8 0 4 -17 16 -37 27 -21 11 -40 22 -43 25 -3 3 -16 10 -30
16 -81 36 -226 110 -228 116 -2 5 -10 8 -18 8 -8 0 -37 11 -66 25 -28 14 -60
25 -69 25 -10 0 -21 5 -24 10 -3 6 -15 10 -26 10 -10 0 -27 4 -37 9 -9 5 -46
17 -82 26 -118 30 -145 38 -155 47 -5 4 -21 8 -35 8 -14 0 -30 4 -35 9 -6 5
-55 15 -110 21 -109 12 -195 24 -307 41 -107 17 -468 19 -558 5z"/>
<path d="M13460 21150 c0 -15 409 -212 434 -208 11 2 -72 47 -200 107 -120 58
-222 107 -226 109 -5 2 -8 -2 -8 -8z"/>
<path d="M9094 21105 c-161 -35 -433 -174 -663 -340 -369 -265 -702 -588
-1191 -1155 -112 -129 -235 -271 -275 -315 -62 -69 -272 -343 -456 -595 -30
-41 -75 -102 -98 -134 -24 -32 -38 -56 -32 -52 11 7 249 311 435 556 74 97
198 239 619 708 145 161 524 481 762 643 125 85 421 249 450 249 6 0 51 23
100 52 161 92 421 168 591 171 47 1 85 6 86 12 1 9 -25 26 -62 39 -8 3 -36 21
-62 40 -35 25 -61 35 -107 40 -68 8 -75 19 -36 56 45 43 36 46 -61 25z"/>
<path d="M19285 21029 c-71 -27 -161 -65 -200 -84 -38 -18 -95 -43 -125 -55
-30 -12 -75 -30 -100 -42 -25 -11 -58 -26 -75 -33 -65 -29 -466 -228 -565
-280 -102 -54 -182 -100 -305 -175 -33 -20 -67 -39 -76 -42 -8 -3 -58 -34
-110 -67 -52 -34 -138 -89 -191 -124 -84 -53 -343 -230 -373 -255 -5 -4 -26
-19 -45 -32 -19 -14 -51 -38 -70 -53 -19 -15 -39 -31 -45 -35 -25 -18 -102
-79 -125 -98 -14 -12 -48 -42 -76 -65 -139 -120 -641 -583 -804 -743 -102 -99
-223 -216 -269 -260 -46 -43 -79 -77 -73 -75 20 7 239 203 407 364 94 89 229
213 300 275 72 62 144 124 160 139 17 14 85 74 152 133 196 173 520 427 753
591 265 187 641 418 930 572 284 151 675 331 990 457 41 16 77 32 79 34 11 11
-24 -1 -144 -47z"/>
<path d="M13838 20588 c-86 -172 -168 -340 -182 -373 -38 -94 -57 -168 -46
-175 6 -4 3 -33 -9 -81 -53 -207 -84 -565 -69 -812 7 -126 19 -191 73 -397 8
-30 113 -306 135 -353 30 -67 35 -53 6 20 -40 102 -94 323 -107 435 -17 157
-6 625 19 788 24 153 85 387 119 455 25 50 60 95 74 95 7 0 32 -98 32 -127 1
-29 23 11 133 233 124 253 121 240 99 356 -2 11 -9 55 -16 99 -6 43 -14 79
-18 79 -3 0 -73 -133 -154 -296 -81 -163 -151 -294 -154 -291 -12 13 35 127
155 370 121 248 126 260 107 273 -10 8 -24 14 -29 14 -6 0 -82 -141 -168 -312z"/>
<path d="M20225 20850 c-447 -91 -1046 -318 -1480 -563 -842 -473 -1884 -1362
-2573 -2195 -51 -62 -90 -112 -88 -112 3 0 60 64 128 143 174 202 719 744 942
938 456 397 924 743 1296 961 164 96 515 278 695 361 295 135 837 309 1116
358 143 24 163 30 134 36 -11 2 -37 11 -58 19 -20 8 -49 14 -64 14 -42 0 -16
16 72 43 108 34 57 33 -120 -3z"/>
<path d="M10320 20785 c0 -6 7 -32 15 -59 19 -64 20 -136 1 -136 -7 0 -30 7
-51 16 -20 8 -74 19 -120 25 -52 6 -110 20 -156 40 -145 61 -172 70 -197 67
-37 -4 -48 -47 -33 -120 15 -72 -1 -118 -50 -143 -27 -15 -50 -16 -147 -10
-131 8 -134 5 -42 -54 31 -20 88 -72 126 -115 l69 -79 -2 -61 c-1 -40 -19
-118 -52 -226 -28 -91 -51 -172 -51 -182 0 -9 12 -27 28 -40 42 -36 109 -130
138 -195 89 -197 125 -426 129 -823 1 -151 3 -282 4 -290 1 -15 14 10 67 128
49 110 60 75 44 -137 -13 -163 -16 -179 -74 -433 -40 -176 -93 -408 -136 -598
-15 -69 -42 -186 -59 -260 -109 -482 -161 -715 -161 -728 0 -12 3 -12 15 -2 8
7 15 18 15 25 0 7 14 26 31 42 17 15 39 36 49 46 20 21 44 118 139 572 38 182
113 530 166 775 109 501 128 601 150 770 20 156 34 531 29 800 -4 240 4 244
31 15 14 -118 17 -207 13 -470 -2 -179 0 -321 3 -317 14 14 60 159 89 277 61
254 100 500 136 854 10 95 26 41 51 -166 19 -157 24 -248 24 -438 0 -132 -3
-265 -7 -295 -10 -98 -45 -292 -75 -430 -17 -74 -59 -272 -94 -440 -36 -168
-89 -422 -120 -565 -30 -143 -55 -269 -55 -280 0 -11 -23 -52 -51 -90 -60 -83
-83 -124 -74 -133 9 -9 516 97 735 154 190 49 210 58 426 200 64 42 134 98
167 134 79 84 77 96 -10 59 -180 -78 -630 -201 -933 -254 -80 -14 -155 -28
-167 -30 -18 -4 -23 -1 -23 15 0 11 8 29 18 40 20 24 56 83 76 125 8 17 24 80
36 140 23 110 70 331 130 603 66 301 116 696 130 1032 22 517 -18 936 -119
1247 -42 131 -59 167 -120 260 -78 121 -101 152 -101 138z m-244 -393 c33 -22
49 -103 29 -143 -21 -39 -39 -37 -70 8 -50 74 -20 176 41 135z"/>
<path d="M20837 20704 c-3 -4 0 -19 8 -35 21 -40 19 -56 -10 -75 -26 -17 -110
-21 -530 -25 -170 -1 -217 -5 -315 -26 -259 -55 -661 -189 -907 -301 -226
-103 -584 -304 -569 -319 3 -3 17 4 33 15 49 35 382 197 553 269 240 102 606
219 843 268 66 14 122 27 125 29 4 2 84 12 177 21 94 10 173 22 177 28 4 7 40
8 115 1 91 -9 119 -16 178 -45 65 -32 70 -36 73 -69 2 -28 -9 -54 -58 -134
-34 -54 -60 -100 -58 -101 2 -2 39 -17 82 -35 136 -57 221 -142 296 -298 54
-112 127 -366 130 -449 0 -25 16 -12 70 59 30 40 70 85 88 102 24 22 32 38 32
62 0 38 14 51 36 33 8 -6 16 -10 18 -8 2 2 0 47 -5 99 -6 74 -20 131 -64 260
-84 251 -77 225 -56 206 30 -27 75 -122 121 -254 24 -68 47 -119 51 -115 22
22 30 127 24 303 l-6 185 21 -25 c28 -34 85 -154 115 -244 21 -63 25 -93 25
-193 0 -128 -14 -194 -53 -249 -71 -100 -109 -144 -127 -144 -30 0 -33 -17
-15 -73 31 -94 33 -97 59 -97 70 0 163 275 187 555 l12 140 -41 140 c-64 220
-161 405 -239 456 -24 16 -28 16 -39 2 -10 -15 -15 -15 -55 -1 -24 9 -78 19
-119 22 -41 4 -123 20 -182 36 -101 28 -187 38 -201 24z m333 -174 c31 -31 26
-60 -9 -60 -48 0 -77 40 -49 68 17 17 35 15 58 -8z"/>
<path d="M22465 20652 c94 -194 209 -616 235 -862 18 -174 -6 -523 -40 -577
-9 -14 -10 -9 -5 28 20 154 -2 486 -40 599 l-15 45 5 -52 c9 -92 6 -358 -5
-434 -13 -90 -49 -259 -57 -272 -9 -15 -42 -127 -37 -127 3 0 31 56 64 125 33
69 62 125 66 125 17 0 -13 -142 -61 -285 -67 -201 -162 -409 -270 -590 -81
-137 -109 -195 -87 -181 12 7 153 200 171 235 7 12 16 19 21 16 6 -4 7 1 3 11
-5 13 -3 15 7 9 8 -5 11 -4 7 3 -9 13 2 44 13 37 25 -15 208 408 254 587 51
196 60 271 60 488 1 270 -33 474 -124 738 -32 94 -135 311 -165 347 -15 19
-15 18 0 -13z"/>
<path d="M8935 20572 c-96 -30 -256 -109 -308 -154 l-32 -27 35 6 c19 3 71 19
115 35 123 45 282 85 368 93 86 8 89 18 16 56 -50 25 -86 23 -194 -9z"/>
<path d="M9251 20496 l-24 -13 24 -16 c35 -22 97 -40 115 -33 22 9 2 40 -40
60 -41 19 -44 19 -75 2z"/>
<path d="M13507 20083 c-47 -154 -86 -400 -94 -588 -3 -82 -3 -147 0 -144 4 3
17 66 31 140 13 74 40 197 60 273 22 85 35 159 34 190 -1 28 2 95 6 149 4 53
6 97 4 97 -3 0 -21 -53 -41 -117z"/>
<path d="M6228 19963 c-10 -2 -18 -8 -18 -12 0 -3 -15 -15 -32 -26 -18 -10
-79 -57 -136 -104 -57 -47 -125 -104 -151 -126 -62 -52 -283 -245 -296 -259
-12 -14 -128 -114 -215 -187 -85 -72 -251 -191 -257 -185 -3 2 13 45 35 94 42
95 79 239 68 267 -6 16 -8 16 -32 0 -15 -9 -38 -18 -53 -20 -19 -2 -82 -60
-240 -221 -335 -344 -464 -509 -620 -792 -32 -59 -77 -138 -100 -177 -40 -68
-41 -73 -40 -150 2 -47 8 -88 16 -100 7 -11 13 -32 13 -47 0 -18 5 -28 15 -28
8 0 15 -9 15 -19 0 -53 -65 -155 -318 -507 -79 -110 -299 -442 -489 -738 -304
-477 -382 -608 -672 -1130 -181 -325 -372 -679 -426 -786 -53 -107 -116 -226
-139 -265 -36 -61 -41 -67 -44 -44 -4 37 58 284 119 474 61 189 157 442 246
649 98 226 102 241 35 129 -156 -264 -314 -570 -574 -1113 -270 -564 -327
-691 -575 -1295 -270 -659 -459 -1163 -594 -1587 -63 -198 -90 -259 -49 -111
101 365 304 963 455 1338 62 154 183 453 268 665 143 353 305 710 689 1510 75
157 686 1270 763 1390 31 48 445 736 472 783 2 4 1 7 -4 7 -8 -1 -46 -56 -89
-130 -11 -19 -109 -169 -218 -333 -180 -271 -249 -385 -384 -637 -25 -47 -53
-96 -62 -110 -9 -14 -24 -38 -32 -55 -8 -16 -52 -97 -98 -180 -45 -82 -96
-175 -113 -205 -33 -61 -46 -84 -141 -254 -36 -65 -66 -120 -66 -122 0 -2 -22
-50 -49 -107 -114 -240 -167 -350 -228 -477 -36 -74 -81 -169 -100 -210 -37
-80 -43 -93 -61 -125 -6 -11 -34 -69 -63 -130 -45 -97 -63 -137 -100 -220 -5
-11 -38 -94 -74 -185 -36 -91 -72 -178 -79 -195 -8 -16 -41 -100 -75 -185 -35
-85 -67 -166 -74 -180 -6 -14 -16 -38 -22 -55 -39 -99 -136 -336 -154 -375
-13 -29 -61 -161 -97 -270 -14 -41 -30 -84 -35 -95 -21 -45 -145 -415 -208
-620 -22 -71 -60 -195 -85 -275 -25 -80 -59 -197 -75 -260 -17 -63 -37 -142
-46 -175 -69 -259 -113 -436 -147 -590 -94 -436 -110 -518 -133 -655 -13 -80
-33 -197 -44 -260 -37 -218 -51 -316 -92 -655 -50 -422 -77 -785 -89 -1200 -5
-176 -11 -347 -14 -380 -14 -198 37 -989 79 -1220 8 -44 21 -125 30 -180 26
-166 40 -231 94 -440 48 -185 85 -299 175 -545 51 -140 196 -434 274 -557 37
-60 80 -128 94 -153 110 -186 447 -551 663 -717 55 -42 102 -80 105 -83 12
-14 109 -80 117 -80 6 0 18 -9 28 -20 10 -11 22 -20 27 -20 5 0 39 -20 77 -45
56 -37 239 -129 376 -190 74 -33 311 -106 420 -129 275 -60 387 -71 698 -69
393 2 574 25 1098 137 42 9 103 25 135 35 33 10 86 26 119 36 33 9 69 21 80
25 11 5 29 11 40 13 50 13 188 57 222 72 61 27 71 31 233 96 209 83 590 273
743 369 34 22 96 60 137 86 176 109 214 136 395 268 176 129 245 183 205 161
-8 -5 -112 -72 -230 -148 -298 -193 -652 -389 -868 -480 -98 -41 -189 -77
-204 -81 -14 -3 -34 -9 -45 -13 -17 -6 -17 -5 1 15 l19 22 -46 0 c-26 0 -47 3
-47 8 0 12 88 70 241 156 407 231 892 549 1168 767 373 293 514 411 711 593
25 23 171 153 325 290 419 372 1086 1040 1483 1486 174 195 393 438 487 540
94 102 216 241 271 310 236 295 772 1003 919 1215 87 127 215 311 284 410 197
285 280 408 391 583 64 100 106 158 111 151 4 -7 10 -49 14 -93 35 -447 168
-997 325 -1342 11 -22 29 -65 40 -95 12 -30 58 -124 103 -209 303 -578 706
-989 1222 -1247 688 -343 1448 -361 2290 -54 209 76 648 292 835 411 185 117
340 220 340 226 0 6 -19 -4 -40 -21 -45 -38 -504 -297 -611 -346 -155 -70
-409 -173 -415 -167 -9 10 155 110 344 209 172 91 569 340 682 428 47 37 144
112 215 168 286 221 717 660 1040 1059 178 218 423 563 568 796 51 81 96 148
101 148 4 0 5 -8 1 -17 -4 -10 -12 -36 -18 -57 -6 -22 -18 -47 -28 -57 -9 -9
-23 -33 -30 -53 -7 -20 -16 -36 -20 -36 -14 0 -31 -58 -21 -76 35 -69 35 -82
-17 -305 -84 -362 -96 -408 -99 -372 -4 37 64 528 77 558 7 16 5 21 -8 22 -10
1 -60 -63 -141 -180 -141 -204 -434 -577 -583 -742 -55 -60 -127 -146 -161
-190 -84 -110 -367 -397 -503 -512 -101 -84 -121 -103 -110 -103 2 0 37 25 78
55 215 161 726 688 1003 1035 119 149 176 227 176 240 0 5 4 10 8 10 5 0 9 6
9 13 0 11 95 161 115 182 10 10 -23 -56 -85 -170 -30 -57 -37 -95 -16 -95 15
0 11 -23 -51 -299 -256 -1123 -412 -1694 -644 -2351 -199 -564 -457 -1169
-652 -1527 -100 -182 -166 -313 -160 -313 3 0 31 40 64 88 75 112 132 190 196
266 28 34 66 84 84 112 18 28 41 59 52 69 18 17 19 16 15 -21 -12 -129 -218
-543 -480 -963 -162 -261 -449 -665 -594 -836 -255 -301 -568 -590 -831 -765
-63 -43 -61 -39 84 111 151 157 253 287 287 366 21 49 25 93 9 93 -11 0 -91
-42 -234 -121 -45 -25 -92 -60 -110 -83 -17 -21 -46 -56 -65 -77 -27 -31 -30
-39 -16 -39 16 0 17 -2 3 -17 -9 -10 -18 -36 -20 -58 -6 -44 -96 -191 -145
-236 -41 -39 -261 -200 -313 -231 -25 -14 -70 -43 -100 -63 -132 -87 -454
-236 -735 -340 -142 -53 -151 -57 -140 -75 6 -9 10 -9 16 1 5 8 9 9 9 3 0 -8
14 -9 48 -2 26 5 70 11 97 14 28 2 57 5 65 7 67 15 276 89 375 132 609 264
1097 603 1552 1077 351 364 801 1009 1126 1612 419 775 816 1823 1096 2889 92
351 238 956 387 1602 23 105 52 231 64 280 39 170 138 650 135 653 -12 13 -44
-15 -63 -53 -29 -61 -46 -57 -20 4 19 44 20 54 8 95 -7 25 -15 46 -19 46 -3 0
-62 -93 -131 -207 -69 -114 -151 -247 -182 -295 -32 -48 -58 -95 -58 -106 0
-60 -381 -571 -682 -915 -296 -338 -509 -533 -928 -848 -119 -90 -481 -306
-645 -384 -309 -149 -354 -169 -510 -225 -971 -352 -1862 -219 -2550 381 -626
545 -1031 1502 -1075 2537 -5 122 -7 243 -5 269 3 27 7 72 9 102 5 56 18 74
48 67 9 -2 18 0 20 6 2 6 14 5 31 -1 22 -9 28 -7 37 9 6 11 19 20 28 20 10 0
23 5 29 11 8 8 17 8 32 0 19 -10 24 -8 41 23 15 25 30 36 56 41 26 4 41 15 56
41 23 39 27 40 70 18 24 -12 32 -13 38 -4 4 7 13 10 18 6 6 -4 16 3 22 14 6
11 18 20 28 20 17 0 72 85 72 111 0 22 -84 53 -109 40 -25 -14 -71 -14 -71 -1
0 5 10 12 23 15 31 8 57 53 50 88 -3 15 -9 30 -14 33 -4 2 -4 16 1 29 7 17 6
25 -1 25 -6 0 -9 9 -6 19 6 24 -11 31 -60 25 -35 -4 -36 -4 -13 7 14 7 31 13
39 15 21 4 32 26 26 52 -3 13 -1 30 5 37 11 13 -6 39 -31 47 -8 3 -7 13 5 36
17 32 14 74 -7 100 -5 6 -6 12 -2 12 4 0 3 6 -3 13 -8 10 -8 23 0 49 9 31 8
41 -10 72 -15 26 -20 45 -15 68 5 23 3 29 -6 23 -10 -6 -11 -3 -2 13 17 32 13
42 -23 57 -31 13 -54 46 -48 69 2 4 -3 14 -9 22 -6 8 -8 14 -5 14 4 0 2 9 -4
19 -7 15 -5 31 10 67 16 37 18 49 8 55 -7 4 -9 11 -5 15 4 4 2 13 -4 20 -7 9
-7 19 0 33 16 29 -17 46 -55 29 -37 -17 -57 9 -43 55 6 18 12 43 15 57 48 240
217 802 352 1172 204 561 433 1076 735 1658 79 152 372 685 387 705 23 29 140
239 138 246 -4 12 -126 -169 -280 -414 -192 -306 -213 -338 -263 -392 -25 -27
-45 -47 -45 -44 0 4 21 58 46 120 43 106 84 242 84 277 0 22 -78 -61 -129
-137 -66 -96 -276 -461 -341 -591 -32 -63 -77 -173 -100 -245 -24 -71 -58
-170 -76 -218 -33 -86 -34 -93 -34 -239 0 -169 -9 -217 -70 -373 -296 -757
-483 -1382 -608 -2030 -33 -170 -63 -334 -67 -362 -4 -29 -11 -55 -16 -59 -15
-9 -10 237 11 511 17 223 29 327 55 490 5 28 4 28 -5 6 -45 -104 -159 -692
-210 -1079 -53 -410 -63 -541 -62 -890 0 -167 -1 -302 -3 -300 -2 2 -9 97 -15
211 -15 284 0 573 50 972 78 626 217 1228 461 1995 27 86 49 162 49 170 0 8
20 73 45 144 25 71 44 131 42 133 -2 2 -21 -43 -41 -99 -21 -57 -54 -143 -73
-193 -19 -49 -59 -164 -89 -255 -29 -91 -74 -228 -99 -305 -54 -166 -180 -661
-229 -900 -43 -208 -61 -314 -86 -503 -28 -207 -37 -267 -55 -347 -11 -53 -16
-162 -20 -440 -3 -203 -8 -383 -10 -398 -6 -33 -219 -327 -509 -702 -115 -148
-279 -360 -364 -469 -85 -110 -279 -348 -432 -530 -152 -182 -352 -423 -444
-536 -93 -113 -199 -239 -236 -280 -152 -168 -232 -268 -262 -327 -72 -141
-449 -579 -979 -1139 -443 -468 -508 -534 -769 -769 -96 -87 -236 -213 -310
-280 -74 -67 -173 -156 -220 -197 -146 -127 -497 -400 -675 -522 -93 -65 -195
-135 -225 -156 -30 -22 -91 -60 -135 -86 -44 -26 -146 -87 -228 -136 -201
-120 -574 -305 -775 -384 -92 -35 -198 -78 -237 -93 -135 -55 -563 -169 -790
-211 -288 -52 -638 -83 -850 -75 -256 10 -574 64 -773 131 -527 178 -998 526
-1351 998 -315 423 -537 993 -640 1649 -36 229 -71 625 -71 809 0 123 1 129
30 178 17 28 30 62 30 75 0 14 4 25 8 25 10 0 25 46 43 128 6 28 15 55 20 58
5 3 9 16 9 30 0 14 9 42 19 62 11 20 24 48 29 62 6 14 19 46 31 72 12 26 21
51 21 56 0 5 9 26 20 49 19 41 42 99 63 163 6 19 24 57 39 83 15 26 28 60 28
74 0 14 13 48 30 74 21 34 29 61 28 87 -1 36 18 82 34 82 5 0 8 6 8 13 0 8 12
24 26 38 25 22 94 156 94 182 0 7 9 23 20 37 11 14 20 35 20 47 0 12 5 25 10
28 6 3 10 15 10 26 0 10 3 19 8 19 4 0 13 15 21 33 8 17 22 43 30 57 19 29 41
88 41 112 0 9 11 28 25 42 15 15 25 37 25 54 0 15 7 37 15 48 8 10 15 25 15
32 0 8 16 37 35 66 21 32 35 65 35 84 0 17 6 37 14 44 18 19 46 74 46 92 0 15
45 96 81 148 11 14 19 34 20 45 1 36 109 223 129 223 4 0 11 24 14 52 7 48 39
118 58 126 4 2 8 10 8 18 0 8 4 14 8 14 13 0 32 47 32 79 0 27 40 92 73 120
11 8 17 28 17 51 0 24 5 40 15 44 8 3 15 10 15 17 0 12 61 102 73 107 4 2 7
10 7 18 0 8 7 17 15 20 8 4 15 13 15 21 0 9 8 22 18 29 16 13 16 13 -3 14 -19
1 -19 1 3 19 12 11 22 22 22 26 0 3 9 15 20 27 11 12 20 28 20 35 0 7 4 13 9
13 5 0 12 17 16 38 8 45 75 151 133 210 25 26 42 53 42 66 0 13 16 47 35 75
19 28 35 57 35 65 0 24 12 46 24 46 18 0 76 93 76 120 0 21 55 99 114 160 30
32 126 170 126 182 0 9 40 66 72 101 9 10 27 31 40 45 30 34 53 71 60 97 3 11
35 112 71 225 36 113 82 259 102 325 50 168 304 881 344 970 51 112 192 460
223 550 5 17 14 39 19 50 4 11 34 85 64 165 31 80 60 154 65 165 5 11 23 58
41 105 17 47 41 112 54 145 13 33 42 110 65 170 72 191 89 234 218 525 69 157
140 319 157 360 43 99 172 396 192 440 9 19 135 274 281 565 184 369 344 671
527 995 144 256 273 485 287 510 14 25 70 115 125 200 55 85 151 236 213 335
l114 180 6 85 c4 47 3 90 -2 97 -5 7 -3 25 5 45 10 24 12 40 5 52 -6 11 -6 21
0 29 6 7 13 44 16 82 7 93 7 90 3 169 -2 51 1 78 14 103 18 35 23 149 7 159
-14 9 -9 40 12 67 22 27 27 67 9 67 -8 0 -10 16 -6 49 6 50 46 125 73 135 8 3
14 10 14 15 0 5 27 36 61 68 49 46 92 98 77 92 -2 -1 -11 -3 -20 -6z m12439
-10245 c-3 -8 -6 -5 -6 6 -1 11 2 17 5 13 3 -3 4 -12 1 -19z m-5889 -2165
c106 -96 271 -227 382 -306 158 -110 178 -132 78 -81 -157 80 -370 241 -475
360 -102 115 -96 126 15 27z m-12422 -2096 c31 -98 73 -223 94 -276 20 -53 43
-114 50 -136 18 -58 184 -425 240 -530 26 -49 51 -101 54 -115 6 -23 4 -22
-24 10 -68 76 -123 165 -204 327 -87 175 -201 477 -236 627 -31 136 -60 287
-60 315 1 25 1 24 16 -8 8 -19 40 -115 70 -214z"/>
<path d="M13013 19902 c-31 -42 -68 -176 -92 -329 -23 -145 -37 -301 -22 -245
15 57 34 55 45 -3 4 -20 16 -45 26 -55 11 -11 30 -56 44 -102 64 -214 100
-338 116 -398 16 -61 95 -290 177 -510 48 -131 114 -283 184 -425 52 -105 56
-116 29 -85 -41 46 -203 290 -275 415 -32 55 -94 170 -137 255 -82 162 -104
197 -93 145 47 -203 147 -492 240 -689 25 -54 44 -100 42 -103 -8 -7 -106 185
-161 317 -29 69 -78 211 -109 315 -55 187 -68 242 -107 440 -13 65 -18 81 -15
45 3 -30 8 -102 10 -160 7 -136 33 -262 89 -435 25 -77 46 -144 46 -148 0 -24
118 -302 195 -462 48 -99 91 -191 96 -204 34 -86 223 -367 338 -501 74 -87
279 -297 313 -321 l26 -19 37 50 c43 59 78 85 148 112 73 28 246 78 268 78 11
0 19 3 19 8 -1 4 -53 48 -117 97 -223 173 -485 445 -650 675 -175 243 -342
568 -428 830 -15 47 -40 119 -55 160 -15 41 -33 100 -40 130 -7 30 -28 100
-46 155 -18 55 -38 134 -44 175 -7 41 -20 125 -30 185 -12 72 -21 191 -25 346
-3 130 -9 249 -13 263 l-7 27 -22 -29z"/>
<path d="M12517 19556 c-4 -27 -7 -81 -7 -121 0 -39 -7 -116 -15 -171 -8 -54
-24 -202 -35 -327 -22 -242 -68 -501 -110 -612 -19 -48 -25 -56 -30 -40 -9 24
-12 18 -35 -75 -16 -62 -229 -503 -289 -598 -19 -31 -26 -54 -24 -79 l3 -36
30 29 c17 16 63 78 103 138 41 59 76 106 78 103 6 -6 -48 -116 -95 -196 -59
-99 -31 -65 66 79 53 80 109 174 125 210 16 36 33 74 38 85 61 137 81 195 126
360 15 55 32 120 39 145 7 25 23 122 36 215 22 153 24 203 23 495 -1 179 -6
352 -11 385 l-9 60 -7 -49z"/>
<path d="M18133 19490 c-414 -247 -1077 -818 -1568 -1350 -275 -298 -482 -548
-722 -870 -143 -193 -353 -493 -353 -507 0 -4 17 -13 37 -20 31 -9 39 -9 46 2
4 8 14 21 22 29 8 8 15 17 15 19 0 8 197 288 209 297 4 3 18 21 31 40 13 19
27 37 30 40 3 3 32 41 65 85 33 44 66 87 75 97 8 9 20 23 25 30 25 33 130 164
135 168 3 3 41 48 85 100 442 525 1178 1211 1678 1564 23 16 87 63 141 104 55
41 105 76 112 79 11 4 43 61 81 146 20 41 4 36 -144 -53z"/>
<path d="M7769 19296 c-93 -64 -169 -128 -196 -164 -15 -20 -31 -39 -34 -42
-6 -5 -95 -108 -198 -230 -25 -30 -87 -102 -136 -160 -50 -58 -120 -145 -155
-194 -36 -49 -77 -103 -91 -120 -14 -17 -49 -65 -77 -106 -28 -41 -81 -115
-116 -165 -36 -49 -99 -141 -141 -203 -75 -110 -77 -114 -67 -150 20 -69 40
-117 49 -113 4 3 34 36 66 75 32 39 67 82 78 95 12 14 38 50 59 80 57 82 283
377 322 420 18 20 62 70 98 111 36 41 67 77 70 80 3 3 46 52 95 110 106 124
235 269 311 348 90 95 89 93 92 157 1 33 7 91 13 128 6 38 9 70 8 72 -2 1 -24
-11 -50 -29z"/>
<path d="M13653 19215 c0 -22 2 -30 4 -17 2 12 2 30 0 40 -3 9 -5 -1 -4 -23z"/>
<path d="M13663 19010 c0 -30 2 -43 4 -27 2 15 2 39 0 55 -2 15 -4 2 -4 -28z"/>
<path d="M12312 18840 c-7 -30 -19 -100 -28 -155 -8 -55 -28 -147 -45 -205
-16 -58 -29 -118 -29 -135 l0 -29 40 39 c32 31 42 36 53 26 13 -10 17 -1 27
56 14 75 15 379 1 428 -8 29 -8 28 -19 -25z"/>
<path d="M13692 18770 c0 -14 2 -19 5 -12 2 6 2 18 0 25 -3 6 -5 1 -5 -13z"/>
<path d="M13702 18715 c0 -16 2 -22 5 -12 2 9 2 23 0 30 -3 6 -5 -1 -5 -18z"/>
<path d="M21176 18658 c-14 -22 -34 -88 -24 -78 8 8 47 100 43 100 -3 0 -11
-10 -19 -22z"/>
<path d="M21236 18530 c-33 -98 -276 -374 -276 -312 0 4 6 16 13 27 28 41 68
115 63 115 -3 0 -23 -26 -43 -57 -102 -156 -314 -392 -487 -543 -535 -465
-1234 -808 -2119 -1041 -155 -41 -386 -93 -480 -109 -29 -5 -90 -16 -137 -24
-149 -26 -241 -38 -425 -56 -176 -17 -227 -19 -465 -20 -220 0 -433 6 -477 16
-13 2 -49 7 -80 10 -79 7 -335 52 -407 70 -32 8 -65 13 -75 11 -42 -9 254 -76
452 -101 232 -30 418 -39 672 -32 494 12 882 68 1395 201 747 193 1335 444
1860 795 230 153 519 394 671 561 245 267 369 439 357 497 -3 13 -6 12 -12 -8z"/>
<path d="M6237 18318 c-14 -18 -82 -121 -152 -228 -70 -107 -139 -213 -154
-235 -38 -55 -76 -122 -64 -110 6 6 81 118 168 250 87 132 175 266 196 298 41
62 45 76 6 25z"/>
<path d="M16044 17938 l-19 -23 23 19 c12 11 22 21 22 23 0 8 -8 2 -26 -19z"/>
<path d="M5822 17690 c-12 -16 -22 -32 -22 -37 0 -4 11 8 25 27 14 19 25 35
25 37 0 8 -8 0 -28 -27z"/>
<path d="M5770 17610 c-6 -11 -8 -20 -6 -20 3 0 10 9 16 20 6 11 8 20 6 20 -3
0 -10 -9 -16 -20z"/>
<path d="M5563 17268 c-340 -571 -357 -601 -547 -971 -59 -115 -159 -306 -223
-425 -63 -119 -198 -397 -300 -617 -304 -657 -307 -663 -528 -1210 -53 -132
-130 -321 -170 -420 -67 -165 -127 -326 -248 -665 -25 -69 -91 -253 -147 -410
-125 -347 -133 -371 -220 -685 -63 -227 -121 -456 -180 -715 -12 -52 -26 -108
-30 -125 -13 -44 -117 -640 -124 -710 -4 -33 -9 -82 -12 -110 -14 -123 20 -3
105 368 176 761 330 1295 642 2222 393 1170 864 2309 1375 3320 130 259 291
565 357 680 67 116 137 239 157 275 20 36 92 161 159 278 68 118 121 216 119
218 -3 2 -86 -132 -185 -298z"/>
<path d="M21154 17434 c-624 -395 -1415 -767 -2092 -984 -107 -34 -192 -63
-190 -65 2 -3 50 7 107 21 97 23 144 26 90 5 -13 -5 -87 -36 -165 -69 -142
-61 -344 -127 -554 -180 -163 -42 -543 -117 -685 -136 -66 -9 -187 -25 -270
-36 -515 -67 -980 -42 -1466 81 -255 64 -481 148 -761 283 -75 36 -143 64
-151 60 -24 -9 -283 -424 -264 -424 3 0 23 32 46 70 23 39 82 129 131 201 l89
131 14 -29 c8 -15 17 -40 21 -55 5 -21 24 -36 87 -70 67 -35 77 -44 57 -46
-14 -2 -48 6 -77 17 -47 17 -51 18 -47 3 2 -9 10 -43 16 -75 l12 -58 -46 -68
c-145 -217 -380 -670 -529 -1022 -267 -630 -531 -1459 -611 -1921 -6 -30 -4
-38 8 -38 16 0 19 9 62 182 14 56 39 150 56 208 16 58 48 170 71 250 53 189
212 658 297 880 12 30 25 66 30 80 4 14 21 54 38 90 17 36 42 94 55 130 14 36
41 100 61 143 20 42 36 79 36 81 0 15 212 436 275 546 42 74 86 151 97 170 25
44 99 160 103 160 1 0 20 -7 41 -16 67 -28 254 -94 359 -125 175 -53 198 -59
320 -84 66 -14 137 -29 158 -34 42 -10 41 -11 51 50 8 47 18 49 176 33 69 -7
242 -16 385 -20 303 -7 453 4 900 66 257 36 692 119 668 127 -6 2 -102 -12
-214 -31 -363 -62 -824 -99 -976 -77 -111 16 -87 29 121 71 201 40 211 42 321
55 40 5 190 26 320 45 117 17 586 110 655 130 36 10 128 35 205 55 339 88 884
284 1243 446 533 241 741 352 1033 551 171 116 399 296 378 298 -3 0 -46 -25
-95 -56z"/>
<path d="M11907 17320 c-43 -50 -76 -90 -73 -90 11 0 111 99 137 138 49 69 19
47 -64 -48z"/>
<path d="M21200 17159 c-86 -63 -502 -329 -515 -329 -3 0 -43 -21 -88 -47
-123 -70 -216 -120 -504 -268 -235 -122 -323 -175 -323 -197 0 -29 691 324
911 467 38 25 71 45 74 45 9 0 361 245 384 268 8 8 48 39 88 69 64 48 81 63
71 63 -2 0 -46 -32 -98 -71z"/>
<path d="M11470 16918 c-141 -103 -194 -135 -370 -220 -113 -55 -226 -109
-252 -119 -26 -10 -94 -41 -150 -69 -88 -42 -109 -58 -145 -104 -41 -53 -47
-73 -14 -56 9 4 47 16 85 26 38 9 81 23 95 30 72 34 171 74 185 74 9 0 16 4
16 9 0 5 15 14 33 21 71 28 87 35 87 42 0 4 13 14 29 23 16 8 32 24 36 35 3
11 12 20 18 20 7 0 18 9 24 20 7 11 27 27 45 36 28 14 120 85 138 105 3 3 28
21 55 39 65 45 210 155 244 186 57 53 -2 16 -159 -98z"/>
<path d="M20772 17010 c-19 -12 -188 -99 -375 -195 -352 -179 -597 -294 -873
-410 -87 -37 -183 -80 -214 -95 -104 -53 -435 -179 -605 -230 -220 -67 -294
-103 -122 -59 223 56 615 191 877 302 14 6 27 11 30 12 3 1 13 5 22 9 9 4 23
9 31 10 8 1 21 7 28 13 8 6 75 39 149 73 199 92 634 311 758 381 126 72 332
199 332 205 0 6 -3 5 -38 -16z"/>
<path d="M11055 16958 c-105 -43 -420 -130 -657 -183 -457 -101 -538 -122
-564 -150 -28 -31 -48 -65 -37 -65 18 0 316 63 547 115 371 83 697 204 770
284 24 27 9 26 -59 -1z"/>
<path d="M14990 16552 c0 -4 33 -20 73 -36 107 -42 111 -41 18 4 -92 44 -91
44 -91 32z"/>
<path d="M18188 15953 c7 -3 16 -2 19 1 4 3 -2 6 -13 5 -11 0 -14 -3 -6 -6z"/>
<path d="M20026 14175 c-130 -49 -294 -135 -335 -176 -14 -14 -53 -61 -86
-105 -33 -43 -75 -93 -93 -111 -18 -18 -31 -33 -27 -33 16 0 53 25 85 59 117
121 289 239 470 324 58 27 123 57 145 68 l40 19 -40 0 c-22 -1 -94 -21 -159
-45z"/>
<path d="M20736 14129 c8 -36 17 -55 69 -159 31 -59 49 -109 51 -135 1 -22 7
-71 14 -109 17 -95 4 -258 -36 -446 -5 -24 -5 -23 15 5 24 37 59 202 68 324 3
50 10 91 14 91 5 0 9 5 9 11 0 5 -3 8 -7 6 -5 -3 -8 23 -8 56 -1 104 -78 269
-164 351 -29 28 -30 28 -25 5z"/>
<path d="M20700 13982 c0 -5 6 -14 13 -20 6 -6 27 -40 46 -76 19 -37 35 -65
36 -64 24 30 23 48 -4 86 -30 41 -91 91 -91 74z"/>
<path d="M19060 13183 c-41 -51 -76 -123 -62 -132 5 -3 15 -24 21 -47 6 -22
23 -51 37 -65 67 -62 80 -148 44 -295 -53 -222 -75 -414 -125 -1084 -39 -521
-51 -598 -116 -763 -59 -148 -92 -192 -144 -193 -16 0 -32 3 -35 7 -3 3 -20 4
-38 2 -32 -5 -79 -56 -176 -188 -16 -22 -38 -48 -48 -58 -24 -23 -63 -86 -236
-372 -80 -132 -171 -278 -202 -325 -66 -99 -87 -135 -71 -126 15 10 13 -5 -4
-28 -28 -37 -19 -53 28 -51 23 1 53 7 65 14 13 7 26 11 28 8 8 -7 -112 -184
-248 -365 -110 -146 -171 -215 -391 -436 -259 -260 -399 -388 -549 -500 -43
-32 -78 -62 -78 -67 0 -5 -6 -9 -14 -9 -7 0 -19 -7 -26 -15 -27 -33 26 -7 150
73 216 140 633 522 912 837 599 677 1172 1643 1237 2086 6 41 25 263 41 494
51 716 59 797 106 1040 29 153 59 266 113 430 22 65 38 121 36 123 -3 4 -57
-66 -74 -97 -13 -23 -50 9 -57 49 -12 72 -24 90 -59 90 -27 0 -40 -8 -65 -37z"/>
<path d="M18884 12972 c-45 -89 -52 -97 -81 -100 -17 -2 -36 -9 -42 -16 -18
-22 -61 -204 -91 -386 -28 -174 -34 -222 -46 -375 -3 -44 -7 -96 -9 -115 -2
-19 -6 -82 -10 -140 -4 -58 -8 -121 -10 -140 -2 -19 -6 -78 -9 -130 -4 -52 -9
-113 -11 -135 -3 -22 -7 -85 -10 -140 -4 -55 -13 -134 -22 -175 -43 -214 -266
-656 -524 -1042 -129 -193 -232 -334 -378 -518 -163 -205 -499 -563 -696 -740
-65 -59 -246 -210 -278 -232 -18 -13 -23 -23 -20 -42 8 -42 26 -49 69 -29 22
10 41 21 42 26 2 4 9 7 16 7 37 0 297 221 506 430 507 507 912 1069 1243 1728
73 145 138 262 145 262 20 0 50 78 62 158 5 39 26 286 45 549 32 441 61 758
70 773 2 3 8 50 14 104 6 55 14 111 18 124 4 17 2 23 -6 18 -30 -19 7 206 55
328 27 70 9 47 -42 -52z"/>
<path d="M18877 12360 c-12 -46 -27 -213 -62 -685 -19 -258 -38 -501 -41 -539
l-7 -70 50 42 c27 24 55 53 61 65 20 42 45 575 38 818 -6 226 -27 419 -39 369z"/>
<path d="M11489 11240 c-66 -89 -115 -147 -119 -140 -7 12 -42 -33 -181 -230
-66 -95 -165 -229 -624 -845 -78 -104 -265 -341 -415 -525 -151 -184 -303
-371 -339 -415 -36 -44 -164 -197 -286 -340 -121 -143 -283 -336 -360 -429
-77 -94 -208 -244 -290 -335 -179 -198 -280 -312 -437 -493 -245 -281 -891
-901 -1318 -1263 -26 -22 -92 -79 -146 -126 -125 -108 -336 -250 -509 -344
-38 -20 -114 -65 -168 -99 -54 -33 -112 -70 -130 -80 -84 -51 -170 -110 -247
-170 -47 -37 -121 -94 -165 -128 -93 -72 -102 -82 -75 -86 28 -5 25 -13 -15
-52 -19 -19 -35 -42 -35 -52 0 -10 -18 -50 -40 -89 -35 -61 -73 -110 -222
-277 -44 -50 -147 -112 -335 -205 -299 -147 -442 -195 -683 -230 -58 -9 -159
-23 -225 -33 -66 -10 -123 -23 -127 -28 -13 -19 -9 -54 9 -72 10 -10 18 -22
18 -28 0 -14 53 -40 135 -66 60 -19 74 -20 175 -10 184 18 265 30 371 56 56
13 110 24 120 24 34 1 447 146 576 203 262 115 687 353 934 523 141 96 343
241 390 278 29 23 107 84 174 136 127 98 166 132 485 410 104 91 223 194 264
230 66 56 253 237 777 756 72 71 171 174 220 228 49 55 116 130 149 166 211
231 490 544 531 595 27 33 84 103 127 155 342 415 553 678 717 895 96 127 255
337 354 468 166 219 209 278 340 467 25 36 70 101 101 145 31 44 73 105 94
135 20 30 102 150 182 265 172 249 318 472 349 535 12 25 31 57 41 72 11 14
19 31 19 37 0 18 -20 13 -27 -6 -4 -10 -10 -20 -13 -23 -4 -3 -19 -24 -34 -48
-24 -39 -77 -112 -110 -153 -7 -9 -33 -45 -56 -80 -24 -35 -46 -66 -50 -69 -3
-3 -21 -25 -38 -50 -37 -52 -55 -76 -140 -187 -34 -45 -77 -101 -95 -126 -44
-61 -154 -210 -165 -222 -4 -6 -48 -62 -96 -125 -59 -78 -93 -114 -104 -112
-10 1 -58 -35 -116 -88 -54 -49 -100 -90 -103 -90 -3 0 4 15 15 33 11 17 71
118 134 222 63 105 164 269 225 365 60 96 129 209 153 250 24 41 80 134 125
205 45 72 103 171 130 220 26 50 90 167 141 260 51 94 103 195 117 225 13 30
34 77 47 103 12 26 20 50 17 53 -3 3 -56 -63 -118 -146z m-3448 -4727 c-11
-16 -89 -96 -173 -179 -131 -130 -275 -258 -790 -705 -135 -117 -453 -360
-653 -498 -228 -157 -588 -372 -601 -358 -5 5 34 35 146 112 183 126 522 394
771 611 183 159 357 304 475 395 32 25 147 114 254 198 107 84 240 186 295
228 137 105 211 163 248 195 41 35 54 36 28 1z"/>
<path d="M20026 10681 c-9 -39 -34 -155 -56 -259 -115 -549 -352 -1524 -505
-2083 -64 -233 -136 -498 -160 -589 -82 -308 -132 -464 -262 -815 -277 -744
-611 -1455 -951 -2020 -96 -159 -209 -339 -250 -400 -378 -549 -799 -1071
-1146 -1418 -605 -607 -1280 -1069 -2106 -1445 -508 -232 -972 -369 -1475
-438 -182 -25 -229 -27 -525 -28 -375 -1 -524 14 -826 85 -747 174 -1358 606
-1720 1215 -157 265 -271 568 -313 832 -36 224 -25 530 25 727 24 96 116 271
187 355 80 96 214 203 348 280 118 67 253 124 316 134 48 7 93 25 93 37 0 4
-10 24 -22 44 l-21 37 -81 -6 c-264 -18 -270 -18 -308 -2 -43 18 -71 55 -72
94 -2 47 -30 37 -88 -31 -30 -35 -60 -79 -68 -97 -13 -31 -12 -34 9 -51 29
-24 81 -24 202 -3 50 8 93 13 96 11 2 -3 -17 -18 -44 -33 -66 -38 -205 -134
-283 -195 -74 -58 -118 -79 -165 -79 -42 0 -60 23 -60 77 0 23 -1 43 -2 43 -1
0 -20 -24 -42 -52 -58 -78 -119 -189 -167 -308 -52 -127 -59 -98 -10 46 74
221 155 339 425 618 130 134 315 252 504 320 125 45 175 80 242 170 30 40 55
75 55 78 0 13 -196 -46 -280 -84 -36 -17 -74 -34 -85 -39 -109 -46 -299 -185
-399 -290 -149 -156 -351 -431 -426 -579 -111 -220 -163 -485 -160 -825 2
-329 72 -631 229 -979 95 -213 283 -520 371 -606 3 -3 25 -31 49 -62 24 -32
96 -108 160 -169 588 -562 1358 -857 2248 -860 419 -1 709 34 1133 135 146 35
467 132 550 166 25 11 113 46 195 79 844 334 1721 901 2351 1518 220 216 376
391 593 668 47 61 -31 -26 -144 -160 -223 -264 -577 -608 -818 -796 -71 -55
-131 -98 -134 -96 -3 3 -30 -10 -60 -30 -30 -19 -56 -33 -58 -31 -3 2 66 67
153 143 359 320 614 588 967 1019 628 767 1150 1618 1571 2557 134 300 214
497 429 1056 78 203 242 752 339 1133 149 586 318 1400 426 2044 49 291 58
380 26 237z m-10055 -8308 c133 -194 398 -480 569 -614 82 -64 191 -159 184
-159 -11 0 -101 58 -204 133 -202 146 -470 441 -568 625 -40 75 -47 92 -38 92
2 0 28 -35 57 -77z"/>
<path d="M13521 10535 c-2 -166 28 -467 70 -700 52 -291 158 -652 203 -689 7
-6 41 -74 76 -151 74 -166 240 -468 317 -577 85 -122 232 -241 254 -206 7 10
24 7 87 -15 107 -36 128 -36 136 4 3 17 6 35 6 39 0 5 -28 31 -62 58 -55 44
-118 105 -232 226 l-30 31 -9 -35 -9 -35 -51 56 c-29 31 -60 71 -70 90 l-18
34 21 -27 c54 -69 73 -3 26 86 -79 149 -118 216 -126 216 -4 0 -10 -7 -14 -15
-12 -31 -36 -14 -66 48 -16 34 -36 73 -44 87 -23 42 -66 138 -66 149 0 6 -4
11 -10 11 -5 0 -14 18 -20 39 -6 22 -24 67 -40 99 -16 33 -34 77 -39 98 -5 22
-25 84 -44 139 -19 55 -51 182 -72 282 -21 101 -41 181 -43 178 -2 -2 10 -82
28 -177 32 -172 136 -546 185 -667 39 -95 21 -86 -25 12 -110 234 -220 663
-260 1012 -11 99 -29 230 -39 290 l-19 110 -1 -100z m663 -1851 c3 -8 2 -12
-4 -9 -6 3 -10 10 -10 16 0 14 7 11 14 -7z"/>
<path d="M13632 10190 c0 -14 2 -19 5 -12 2 6 2 18 0 25 -3 6 -5 1 -5 -13z"/>
<path d="M13642 10095 c0 -16 2 -22 5 -12 2 9 2 23 0 30 -3 6 -5 -1 -5 -18z"/>
<path d="M9914 9818 c-143 -171 -147 -177 -243 -304 -24 -32 -50 -65 -57 -73
-7 -9 -46 -57 -86 -107 -67 -83 -96 -117 -228 -269 -25 -28 -54 -62 -65 -76
-495 -597 -899 -1022 -1649 -1734 -18 -16 -54 -48 -80 -70 -26 -22 -89 -76
-140 -120 -51 -44 -106 -91 -122 -104 -27 -23 -146 -124 -170 -146 -6 -5 -33
-28 -60 -50 -27 -22 -66 -56 -89 -76 -22 -20 -78 -65 -125 -100 -47 -35 -117
-88 -155 -119 -92 -72 -450 -316 -495 -337 -8 -4 -49 -28 -90 -54 -111 -68
-363 -202 -461 -244 -35 -15 -92 -40 -127 -56 -35 -16 -67 -29 -72 -29 -4 0
-21 -6 -37 -14 -52 -26 -309 -106 -340 -106 -18 0 -35 -4 -38 -10 -3 -5 -19
-10 -35 -10 -16 0 -39 -4 -52 -9 -13 -5 -63 -14 -113 -21 -49 -6 -125 -16
-169 -23 l-79 -12 -58 -160 c-32 -88 -59 -165 -59 -171 0 -6 26 -30 58 -53 57
-43 57 -43 127 -38 271 17 712 156 1075 337 292 145 689 397 1017 644 134 102
542 442 841 703 46 40 183 169 305 286 122 118 262 252 311 298 131 123 788
828 945 1015 465 551 564 671 722 874 321 413 449 585 449 603 0 5 -17 -5 -37
-22 -21 -16 -64 -43 -95 -61 l-56 -31 -29 43 c-15 24 -33 52 -39 63 -6 10 -15
20 -21 22 -6 2 -41 -34 -79 -79z"/>
<path d="M18278 8996 c-13 -18 -66 -87 -119 -152 -119 -148 -124 -157 -139
-224 -44 -201 -132 -564 -204 -845 -93 -360 -281 -962 -396 -1270 -41 -110
-70 -186 -123 -320 -30 -77 -71 -181 -90 -230 -19 -50 -56 -135 -82 -190 -26
-55 -81 -174 -122 -265 -41 -91 -78 -169 -83 -175 -4 -5 -29 -50 -55 -100
-134 -254 -202 -371 -343 -595 -85 -135 -178 -276 -207 -315 -28 -38 -103
-140 -165 -225 -207 -283 -360 -452 -645 -712 -72 -65 -184 -153 -403 -316
-13 -9 -43 -28 -65 -41 -23 -12 -55 -33 -72 -45 -16 -11 -50 -32 -75 -45 -25
-14 -47 -27 -50 -30 -3 -4 -16 -14 -30 -22 -21 -14 -25 -23 -23 -60 1 -24 2
-46 4 -49 1 -3 1 -8 0 -13 -1 -10 7 -9 30 3 16 9 19 7 19 -12 1 -52 12 -52
124 1 58 28 109 51 112 51 3 0 18 8 32 18 15 11 63 38 107 62 111 59 327 222
595 449 212 180 256 227 441 473 551 732 980 1566 1360 2643 226 643 366 1152
610 2219 43 191 82 352 85 357 3 5 3 9 0 9 -3 0 -16 -15 -28 -34z"/>
<path d="M2927 8716 c-8 -21 -39 -337 -59 -611 -7 -101 -12 -374 -13 -672 0
-464 1 -503 17 -515 21 -16 38 -93 73 -338 28 -195 86 -422 132 -515 26 -51
97 -160 119 -182 16 -17 24 -16 44 2 15 14 21 13 62 -10 25 -14 53 -34 63 -45
21 -24 45 -26 45 -5 0 9 7 18 15 21 8 4 15 11 15 16 0 5 9 23 20 38 11 15 48
84 83 152 35 67 70 133 78 145 12 21 9 37 -40 175 -29 84 -64 198 -78 253 -59
241 -92 383 -97 430 -4 28 -14 92 -23 143 -15 83 -19 92 -30 75 -25 -34 -98
-123 -136 -166 l-37 -42 -40 43 c-22 24 -42 58 -45 75 -3 18 -12 70 -20 117
-14 82 -14 75 -10 -197 2 -163 0 -285 -5 -288 -14 -8 -36 41 -54 121 -35 156
-50 471 -52 1094 -2 563 -9 732 -27 686z"/>
<path d="M13957 8603 c78 -152 193 -329 258 -398 45 -48 50 -47 14 5 -19 28
-209 371 -209 377 0 7 -112 138 -121 141 -5 2 21 -54 58 -125z"/>
<path d="M10461 8108 c-200 -237 -382 -459 -512 -624 -167 -213 -978 -1116
-1248 -1389 -147 -148 -355 -360 -462 -470 -108 -110 -252 -253 -321 -318 -69
-65 -137 -133 -149 -151 -54 -74 -124 -147 -328 -339 -118 -111 -219 -207
-225 -212 -6 -6 -63 -54 -128 -107 -132 -110 -154 -135 -82 -94 80 47 222 156
345 267 866 783 1793 1704 1876 1864 27 53 220 286 544 660 81 94 227 274 324
400 96 127 191 250 210 275 19 25 70 91 112 147 43 56 113 147 155 202 43 56
76 101 73 101 -2 0 -85 -96 -184 -212z"/>
<path d="M16099 8005 c-85 -39 -216 -69 -394 -90 -141 -17 -255 -18 -419 -5
-122 10 -135 8 -136 -26 0 -31 199 -50 370 -35 246 21 557 105 645 175 29 22
19 20 -66 -19z"/>
<path d="M19551 8014 c0 -11 3 -14 6 -6 3 7 2 16 -1 19 -3 4 -6 -2 -5 -13z"/>
<path d="M19405 7577 c-70 -210 -183 -526 -250 -702 -143 -374 -396 -951 -532
-1215 -53 -102 -129 -250 -171 -330 -41 -80 -130 -238 -197 -351 -67 -113
-148 -257 -179 -320 -33 -66 -117 -201 -199 -319 -245 -353 -281 -407 -243
-365 38 42 112 143 335 455 92 128 422 678 521 866 40 77 120 229 178 339 110
210 125 241 229 480 112 257 146 339 149 360 2 18 96 278 237 660 31 83 83
238 116 345 32 107 78 257 101 333 81 266 32 143 -95 -236z"/>
<path d="M2788 6452 c-13 -47 14 -214 68 -432 32 -129 60 -227 62 -217 5 23
-24 326 -47 489 -14 106 -21 132 -41 153 -28 30 -36 31 -42 7z"/>
<path d="M3659 5241 l-22 -69 26 -44 c14 -25 63 -78 109 -119 46 -40 88 -78
93 -83 21 -23 83 -64 146 -98 49 -26 71 -33 87 -27 31 12 27 25 -8 33 -36 7
-73 44 -141 141 -27 39 -74 106 -104 149 -31 43 -63 93 -72 110 -22 44 -53 76
-74 76 -13 0 -24 -18 -40 -69z"/>
<path d="M10883 5285 c-50 -7 -112 -26 -160 -48 -43 -20 -88 -39 -100 -42 -13
-4 -23 -11 -23 -17 0 -11 12 -9 115 22 56 17 99 21 211 22 78 0 146 -2 152 -6
6 -3 17 1 25 9 9 8 28 20 43 25 34 13 22 28 -32 41 -52 12 -131 10 -231 -6z"/>
<path d="M11633 5240 c-16 -28 -44 -76 -64 -107 -30 -47 -35 -61 -29 -85 5
-15 4 -43 -1 -63 -14 -51 10 -130 65 -211 31 -44 45 -75 42 -88 -6 -22 82
-166 99 -162 20 5 16 82 -6 137 -36 90 -48 135 -39 150 7 11 15 8 40 -16 l30
-29 0 58 c0 47 8 75 40 143 22 47 40 93 40 101 0 25 -135 193 -171 213 -16 8
-23 2 -46 -41z"/>
<path d="M11440 4773 c0 -10 82 -103 91 -103 4 0 13 10 20 22 10 18 8 24 -12
39 -26 20 -99 51 -99 42z"/>
<path d="M11540 4318 c-26 -28 -25 -42 5 -132 40 -119 34 -329 -12 -446 -4 -8
-7 -18 -7 -21 -1 -3 -25 -40 -55 -82 -98 -136 -252 -239 -470 -312 -194 -66
-246 -76 -374 -76 -135 0 -137 -3 -40 -65 49 -31 53 -36 53 -73 0 -83 52 -241
79 -241 18 0 41 39 41 67 0 30 -15 122 -26 156 -5 15 4 17 95 17 55 0 102 4
105 9 3 5 45 21 93 36 215 68 445 213 581 367 46 51 96 116 111 143 l29 51
-23 -1 c-17 -1 -43 -25 -88 -81 -78 -97 -85 -102 -142 -119 -58 -18 -58 -13 0
113 66 139 110 253 139 359 24 85 25 97 15 175 -14 101 -44 178 -70 178 -10 0
-27 -10 -39 -22z m-857 -1209 c4 -3 2 -11 -6 -18 -12 -9 -14 -7 -14 14 0 14 2
22 6 18 3 -4 10 -10 14 -14z"/>
<path d="M11937 4177 c-27 -64 -107 -286 -107 -296 1 -19 92 198 125 297 24
74 14 74 -18 -1z"/>
<path d="M11751 4023 c-14 -48 -14 -85 -2 -63 11 19 25 100 17 100 -3 0 -10
-17 -15 -37z"/>
<path d="M11769 3863 c-12 -27 -25 -59 -30 -73 l-9 -25 20 25 c40 49 70 120
50 120 -6 0 -20 -21 -31 -47z"/>
<path d="M11346 3028 c-7 -18 -35 -82 -61 -143 l-48 -110 17 -46 c18 -53 21
-89 6 -89 -19 0 -92 85 -132 154 -23 39 -55 94 -73 122 -18 27 -42 69 -54 92
-24 48 -45 56 -35 15 26 -115 134 -383 161 -398 9 -5 29 -23 43 -40 14 -16 56
-62 94 -102 60 -63 78 -76 130 -92 59 -18 62 -18 96 0 19 11 44 19 55 19 25 0
54 50 111 190 l43 104 -113 111 c-62 60 -136 140 -165 178 -29 37 -55 67 -57
67 -2 0 -10 -15 -18 -32z"/>
<path d="M11145 2420 c-9 -15 14 -47 80 -117 l56 -58 -46 93 c-34 66 -52 92
-65 92 -11 0 -22 -5 -25 -10z"/>
<path d="M12467 2248 c2 -5 0 -8 -6 -8 -5 0 -15 -16 -21 -35 -6 -20 -22 -48
-34 -63 -50 -60 -60 -87 -46 -121 11 -27 22 -34 94 -55 201 -60 624 -68 1026
-20 118 14 320 63 320 77 0 2 -46 -5 -102 -15 -156 -28 -598 -36 -783 -14
-221 26 -251 33 -285 72 -16 19 -49 44 -74 56 -40 19 -43 23 -35 45 6 16 5 22
-1 18 -10 -6 -12 -1 -13 46 -1 21 -6 26 -23 25 -12 0 -20 -4 -17 -8z"/>
</g>
</svg>
